<svg width="148" height="298" viewBox="0 0 148 298" fill="none" xmlns="http://www.w3.org/2000/svg">
<g clip-path="url(#clip0_493_397)">
<g clip-path="url(#clip1_493_397)">
<g clip-path="url(#clip2_493_397)">
<path d="M0.339925 56.914H2.50424C2.69256 56.914 2.84416 57.0656 2.84416 57.2539V67.9507C2.84416 68.1391 2.69256 68.2906 2.50424 68.2906H0.339925C0.151606 68.2906 0 68.1391 0 67.9507V57.2539C0 57.0656 0.151606 56.914 0.339925 56.914Z" fill="#443C46"/>
</g>
</g>
<g clip-path="url(#clip3_493_397)">
<g clip-path="url(#clip4_493_397)">
<path d="M0.339924 78.2304H2.50424C2.69256 78.2304 2.84416 78.382 2.84416 78.5703V100.576C2.84416 100.765 2.69256 100.916 2.50424 100.916H0.339924C0.151606 100.916 0 100.765 0 100.576V78.5703C0 78.382 0.151606 78.2304 0.339924 78.2304Z" fill="#443C46"/>
</g>
</g>
<g clip-path="url(#clip5_493_397)">
<g clip-path="url(#clip6_493_397)">
<path d="M0.339924 106.937H2.50424C2.69256 106.937 2.84416 107.089 2.84416 107.277V129.283C2.84416 129.471 2.69256 129.623 2.50424 129.623H0.339924C0.151606 129.623 0 129.471 0 129.283V107.277C0 107.089 0.151606 106.937 0.339924 106.937Z" fill="#443C46"/>
</g>
</g>
<g clip-path="url(#clip7_493_397)">
<g clip-path="url(#clip8_493_397)">
<path d="M146.079 93.7639H143.915C143.727 93.7639 143.575 93.9155 143.575 94.1038V128.937C143.575 129.125 143.727 129.277 143.915 129.277H146.079C146.268 129.277 146.419 129.125 146.419 128.937V94.1038C146.419 93.9155 146.268 93.7639 146.079 93.7639Z" fill="#443C46"/>
</g>
</g>
<g clip-path="url(#clip9_493_397)">
<g clip-path="url(#clip10_493_397)">
<path d="M120.014 0H26.4042C12.6548 0 1.50879 11.146 1.50879 24.8953V271.198C1.50879 284.947 12.6548 296.093 26.4042 296.093H120.014C133.764 296.093 144.91 284.947 144.91 271.198V24.8953C144.91 11.146 133.764 0 120.014 0Z" fill="#E8E4EA" stroke="#443C46" stroke-width="0.813443"/>
<path d="M119.437 0.805847H26.9822C13.4204 0.805847 2.42627 11.7999 2.42627 25.3618V270.731C2.42627 284.293 13.4204 295.287 26.9822 295.287H119.437C132.999 295.287 143.993 284.293 143.993 270.731V25.3618C143.993 11.7999 132.999 0.805847 119.437 0.805847Z" fill="#49454B"/>
<path d="M119.437 0.805847H26.9822C13.4204 0.805847 2.42627 11.7999 2.42627 25.3618V270.731C2.42627 284.293 13.4204 295.287 26.9822 295.287H119.437C132.999 295.287 143.993 284.293 143.993 270.731V25.3618C143.993 11.7999 132.999 0.805847 119.437 0.805847Z" fill="#7B6E81"/>
<path d="M119.593 1.74213H26.8259C14.0369 1.74213 3.66943 12.1096 3.66943 24.8986V271.194C3.66943 283.983 14.0369 294.351 26.8259 294.351H119.593C132.382 294.351 142.749 283.983 142.749 271.194V24.8986C142.749 12.1096 132.382 1.74213 119.593 1.74213Z" fill="black"/>
<path d="M119.593 1.74213H26.8259C14.0369 1.74213 3.66943 12.1096 3.66943 24.8986V271.194C3.66943 283.983 14.0369 294.351 26.8259 294.351H119.593C132.382 294.351 142.749 283.983 142.749 271.194V24.8986C142.749 12.1096 132.382 1.74213 119.593 1.74213Z" fill="black"/>
</g>
</g>
<g clip-path="url(#clip11_493_397)">
<g clip-path="url(#clip12_493_397)">
<g clip-path="url(#clip13_493_397)">
<path d="M87.2783 9.89777H57.921C54.4826 9.89777 51.6953 12.6851 51.6953 16.1235C51.6953 19.5618 54.4826 22.3491 57.921 22.3491H87.2783C90.7167 22.3491 93.504 19.5618 93.504 16.1235C93.504 12.6851 90.7167 9.89777 87.2783 9.89777Z" fill="black"/>
</g>
</g>
<g clip-path="url(#clip14_493_397)">
<g clip-path="url(#clip15_493_397)">
<path d="M87.5511 18.3926C88.9166 18.3926 90.0236 17.2857 90.0236 15.9202C90.0236 14.5547 88.9166 13.4477 87.5511 13.4477C86.1856 13.4477 85.0786 14.5547 85.0786 15.9202C85.0786 17.2857 86.1856 18.3926 87.5511 18.3926Z" fill="#0A0A0A"/>
<path d="M87.5514 17.4452C88.3937 17.4452 89.0765 16.7625 89.0765 15.9202C89.0765 15.0779 88.3937 14.3951 87.5514 14.3951C86.7092 14.3951 86.0264 15.0779 86.0264 15.9202C86.0264 16.7625 86.7092 17.4452 87.5514 17.4452Z" fill="#0A0D13"/>
<path d="M87.5511 17.0822C88.1929 17.0822 88.7131 16.562 88.7131 15.9203C88.7131 15.2785 88.1929 14.7583 87.5511 14.7583C86.9094 14.7583 86.3892 15.2785 86.3892 15.9203C86.3892 16.562 86.9094 17.0822 87.5511 17.0822Z" fill="#091427"/>
<path fill-rule="evenodd" clip-rule="evenodd" d="M86.7513 15.1428C86.6135 15.1573 86.4177 15.3676 86.4032 15.7809C86.3887 16.1943 86.57 16.4191 86.6715 16.4191C86.773 16.4191 87.1937 15.8172 86.7513 15.1428Z" fill="#235A91" fill-opacity="0.556075"/>
<path fill-rule="evenodd" clip-rule="evenodd" d="M87.7405 14.9981C87.5232 15.065 87.4814 15.4161 87.4898 15.6167C87.4981 15.8173 87.7823 16.344 88.1251 16.2269C88.4678 16.1099 88.5263 15.6752 88.3842 15.3826C88.2421 15.0901 87.983 14.8811 87.7405 14.9981Z" fill="#235A91" fill-opacity="0.556075"/>
</g>
</g>
</g>
</g>
<defs>
<clipPath id="clip0_493_397">
<rect width="147.233" height="297.72" fill="white"/>
</clipPath>
<clipPath id="clip1_493_397">
<rect width="2.84705" height="11.7949" fill="white" transform="translate(0 56.5342)"/>
</clipPath>
<clipPath id="clip2_493_397">
<rect width="2.84705" height="11.7949" fill="white" transform="translate(0 56.5342)"/>
</clipPath>
<clipPath id="clip3_493_397">
<rect width="2.84705" height="23.1831" fill="white" transform="translate(0 78.0905)"/>
</clipPath>
<clipPath id="clip4_493_397">
<rect width="2.84705" height="23.1831" fill="white" transform="translate(0 78.0905)"/>
</clipPath>
<clipPath id="clip5_493_397">
<rect width="2.84705" height="23.1831" fill="white" transform="translate(0 106.561)"/>
</clipPath>
<clipPath id="clip6_493_397">
<rect width="2.84705" height="23.1831" fill="white" transform="translate(0 106.561)"/>
</clipPath>
<clipPath id="clip7_493_397">
<rect width="2.84705" height="35.7915" fill="white" transform="translate(143.572 93.546)"/>
</clipPath>
<clipPath id="clip8_493_397">
<rect width="2.84705" height="35.7915" fill="white" transform="translate(143.572 93.546)"/>
</clipPath>
<clipPath id="clip9_493_397">
<rect width="143.979" height="296.093" fill="white" transform="translate(1.21973)"/>
</clipPath>
<clipPath id="clip10_493_397">
<rect width="143.979" height="296.093" fill="white" transform="translate(1.21973)"/>
</clipPath>
<clipPath id="clip11_493_397">
<rect width="42.7057" height="12.6084" fill="white" transform="translate(51.4502 9.76123)"/>
</clipPath>
<clipPath id="clip12_493_397">
<rect width="42.299" height="12.6084" fill="white" transform="translate(51.4502 9.76123)"/>
</clipPath>
<clipPath id="clip13_493_397">
<rect width="42.299" height="12.6084" fill="white" transform="translate(51.4502 9.76123)"/>
</clipPath>
<clipPath id="clip14_493_397">
<rect width="5.28738" height="5.28738" fill="white" transform="translate(84.8013 13.2184)"/>
</clipPath>
<clipPath id="clip15_493_397">
<rect width="5.28738" height="5.28738" fill="white" transform="translate(84.8013 13.2184)"/>
</clipPath>
</defs>
</svg>
